<svg xmlns="http://www.w3.org/2000/svg" xmlns:xlink="http://www.w3.org/1999/xlink" width="200" height="180" viewBox="0 0 200 180"><rect width="100%" height="100%" fill="#DDDDDD"/><path d="M46.69 96.66L51.70 96.66Q52.24 96.66 52.55 96.96Q52.87 97.26 52.87 97.76L52.87 97.76L52.87 99.76L39.48 99.76L39.48 98.65Q39.48 98.32 39.62 97.94Q39.76 97.57 40.07 97.28L40.07 97.28L46 91.34Q46.74 90.58 47.33 89.89Q47.92 89.20 48.31 88.53Q48.70 87.85 48.91 87.16Q49.12 86.46 49.12 85.69L49.12 85.69Q49.12 84.99 48.92 84.46Q48.71 83.92 48.34 83.56Q47.97 83.20 47.45 83.01Q46.93 82.83 46.28 82.83L46.28 82.83Q45.69 82.83 45.18 83.00Q44.68 83.17 44.29 83.47Q43.89 83.78 43.62 84.18Q43.35 84.59 43.22 85.07L43.22 85.07Q42.99 85.69 42.63 85.90Q42.26 86.10 41.57 85.99L41.57 85.99L39.82 85.68Q40.02 84.28 40.60 83.22Q41.18 82.16 42.05 81.45Q42.92 80.74 44.05 80.38Q45.18 80.02 46.47 80.02L46.47 80.02Q47.82 80.02 48.94 80.42Q50.06 80.82 50.86 81.55Q51.66 82.28 52.10 83.30Q52.55 84.33 52.55 85.59L52.55 85.59Q52.55 86.67 52.23 87.58Q51.91 88.50 51.38 89.34Q50.85 90.18 50.13 90.96Q49.42 91.74 48.63 92.55L48.63 92.55L44.23 97.05Q44.87 96.86 45.49 96.76Q46.12 96.66 46.69 96.66L46.69 96.66ZM69.10 90L69.10 90Q69.10 92.55 68.55 94.43Q68.00 96.32 67.04 97.55Q66.07 98.77 64.76 99.38Q63.44 99.98 61.92 99.98L61.92 99.98Q60.39 99.98 59.09 99.38Q57.79 98.77 56.83 97.55Q55.87 96.32 55.33 94.43Q54.79 92.55 54.79 90L54.79 90Q54.79 87.43 55.33 85.56Q55.87 83.68 56.83 82.45Q57.79 81.22 59.09 80.62Q60.39 80.02 61.92 80.02L61.92 80.02Q63.44 80.02 64.76 80.62Q66.07 81.22 67.04 82.45Q68.00 83.68 68.55 85.56Q69.10 87.43 69.10 90ZM65.66 90L65.66 90Q65.66 87.88 65.35 86.49Q65.03 85.10 64.52 84.28Q64.00 83.45 63.32 83.12Q62.65 82.79 61.92 82.79L61.92 82.79Q61.20 82.79 60.53 83.12Q59.86 83.45 59.35 84.28Q58.84 85.10 58.53 86.49Q58.23 87.88 58.23 90L58.23 90Q58.23 92.12 58.53 93.51Q58.84 94.90 59.35 95.72Q59.86 96.55 60.53 96.88Q61.20 97.21 61.92 97.21L61.92 97.21Q62.65 97.21 63.32 96.88Q64.00 96.55 64.52 95.72Q65.03 94.90 65.35 93.51Q65.66 92.12 65.66 90ZM84.76 90L84.76 90Q84.76 92.55 84.21 94.43Q83.66 96.32 82.70 97.55Q81.73 98.77 80.42 99.38Q79.10 99.98 77.58 99.98L77.58 99.98Q76.05 99.98 74.75 99.38Q73.45 98.77 72.49 97.55Q71.53 96.32 70.99 94.43Q70.45 92.55 70.45 90L70.45 90Q70.45 87.43 70.99 85.56Q71.53 83.68 72.49 82.45Q73.45 81.22 74.75 80.62Q76.05 80.02 77.58 80.02L77.58 80.02Q79.10 80.02 80.42 80.62Q81.73 81.22 82.70 82.45Q83.66 83.68 84.21 85.56Q84.76 87.43 84.76 90ZM81.32 90L81.32 90Q81.32 87.88 81.01 86.49Q80.69 85.10 80.18 84.28Q79.66 83.45 78.98 83.12Q78.31 82.79 77.58 82.79L77.58 82.79Q76.86 82.79 76.19 83.12Q75.52 83.45 75.01 84.28Q74.50 85.10 74.19 86.49Q73.89 87.88 73.89 90L73.89 90Q73.89 92.12 74.19 93.51Q74.50 94.90 75.01 95.72Q75.52 96.55 76.19 96.88Q76.86 97.21 77.58 97.21L77.58 97.21Q78.31 97.21 78.98 96.88Q79.66 96.55 80.18 95.72Q80.69 94.90 81.01 93.51Q81.32 92.12 81.32 90ZM106.20 95.29L104.43 97.03L99.85 92.46L95.23 97.06L93.47 95.32L98.08 90.69L93.68 86.29L95.44 84.53L99.84 88.93L104.21 84.56L105.99 86.31L101.61 90.70L106.20 95.29ZM124.68 97.26L128.19 97.26L128.19 99.76L117.39 99.76L117.39 97.26L121.34 97.26L121.34 85.88Q121.34 85.21 121.38 84.49L121.38 84.49L118.58 86.84Q118.33 87.03 118.10 87.08Q117.86 87.12 117.65 87.08Q117.44 87.04 117.28 86.94Q117.12 86.84 117.04 86.72L117.04 86.72L115.98 85.27L121.94 80.21L124.68 80.21L124.68 97.26ZM137.71 97.37L137.71 97.37Q138.53 97.37 139.15 97.13Q139.77 96.90 140.20 96.48Q140.62 96.06 140.84 95.48Q141.05 94.90 141.05 94.23L141.05 94.23Q141.05 92.62 140.16 91.80Q139.27 90.97 137.71 90.97L137.71 90.97Q136.14 90.97 135.25 91.80Q134.36 92.62 134.36 94.23L134.36 94.23Q134.36 94.90 134.57 95.48Q134.79 96.06 135.21 96.48Q135.64 96.90 136.26 97.13Q136.88 97.37 137.71 97.37ZM137.71 82.53L137.71 82.53Q136.96 82.53 136.42 82.76Q135.88 82.99 135.53 83.38Q135.17 83.76 135.00 84.26Q134.83 84.76 134.83 85.32L134.83 85.32Q134.83 85.90 134.97 86.44Q135.11 86.99 135.45 87.41Q135.79 87.84 136.34 88.10Q136.90 88.35 137.71 88.35L137.71 88.35Q138.52 88.35 139.07 88.10Q139.62 87.84 139.96 87.41Q140.30 86.99 140.44 86.44Q140.58 85.90 140.58 85.32L140.58 85.32Q140.58 84.76 140.41 84.26Q140.23 83.76 139.88 83.38Q139.53 82.99 138.99 82.76Q138.45 82.53 137.71 82.53ZM141.00 89.58L141.00 89.58Q142.78 90.16 143.63 91.36Q144.48 92.55 144.48 94.28L144.48 94.28Q144.48 95.58 143.99 96.63Q143.50 97.68 142.61 98.42Q141.71 99.17 140.47 99.57Q139.22 99.98 137.71 99.98L137.71 99.98Q136.19 99.98 134.94 99.57Q133.70 99.17 132.80 98.42Q131.91 97.68 131.42 96.63Q130.93 95.58 130.93 94.28L130.93 94.28Q130.93 92.55 131.78 91.36Q132.63 90.16 134.41 89.58L134.41 89.58Q132.99 88.99 132.29 87.89Q131.58 86.80 131.58 85.26L131.58 85.26Q131.58 84.15 132.03 83.20Q132.48 82.24 133.29 81.53Q134.10 80.82 135.23 80.42Q136.36 80.02 137.71 80.02L137.71 80.02Q139.06 80.02 140.18 80.42Q141.31 80.82 142.12 81.53Q142.93 82.24 143.38 83.20Q143.83 84.15 143.83 85.26L143.83 85.26Q143.83 86.80 143.13 87.89Q142.42 88.99 141.00 89.58ZM160.52 90L160.52 90Q160.52 92.55 159.97 94.43Q159.43 96.32 158.46 97.55Q157.50 98.77 156.18 99.38Q154.86 99.98 153.34 99.98L153.34 99.98Q151.81 99.98 150.51 99.38Q149.21 98.77 148.25 97.55Q147.29 96.32 146.75 94.43Q146.21 92.55 146.21 90L146.21 90Q146.21 87.43 146.75 85.56Q147.29 83.68 148.25 82.45Q149.21 81.22 150.51 80.62Q151.81 80.02 153.34 80.02L153.34 80.02Q154.86 80.02 156.18 80.62Q157.50 81.22 158.46 82.45Q159.43 83.68 159.97 85.56Q160.52 87.43 160.52 90ZM157.08 90L157.08 90Q157.08 87.88 156.77 86.49Q156.46 85.10 155.94 84.28Q155.42 83.45 154.74 83.12Q154.07 82.79 153.34 82.79L153.34 82.79Q152.62 82.79 151.95 83.12Q151.29 83.45 150.77 84.28Q150.26 85.10 149.96 86.49Q149.65 87.88 149.65 90L149.65 90Q149.65 92.12 149.96 93.51Q150.26 94.90 150.77 95.72Q151.29 96.55 151.95 96.88Q152.62 97.21 153.34 97.21L153.34 97.21Q154.07 97.21 154.74 96.88Q155.42 96.55 155.94 95.72Q156.46 94.90 156.77 93.51Q157.08 92.12 157.08 90Z" fill="#999999"/></svg>